HIERARCHY
ROOT hip
{
	OFFSET 0.000000 0.000000 0.000000 
	CHANNELS 6 Xposition Yposition Zposition Xrotation Zrotation Yrotation
	JOINT abdomen
	{
		OFFSET 0.000000 3.402643 0.000000 
		CHANNELS 3 Xrotation Zrotation Yrotation
		JOINT chest
		{
			OFFSET 0.000000 8.438565 -0.680529 
			CHANNELS 3 Xrotation Zrotation Yrotation
			JOINT neck
			{
				OFFSET 0.000000 10.207942 -0.272212 
				CHANNELS 3 Xrotation Zrotation Yrotation
				JOINT head
				{
					OFFSET 0.000000 3.130431 0.000000 
					CHANNELS 3 Xrotation Zrotation Yrotation
					End Site
					{
						OFFSET 0.000000 3.130435 0.000000 
					}
				}
			}
			JOINT lCollar
			{
				OFFSET 3.470700 6.669187 -0.816635 
				CHANNELS 3 Yrotation Zrotation Xrotation
				JOINT lShldr
				{
					OFFSET 3.198488 0.000000 0.000000 
					CHANNELS 3 Zrotation Yrotation Xrotation
					JOINT lForeArm
					{
						OFFSET 10.139888 0.000000 0.000000 
						CHANNELS 3 Yrotation Zrotation Xrotation
						JOINT lHand
						{
							OFFSET 8.370511 0.000000 0.000000 
							CHANNELS 3 Zrotation Yrotation Xrotation
							End Site
							{
								OFFSET 4.083176 0.000000 0.000000 
							}
						}
					}
				}
			}
			JOINT rCollar
			{
				OFFSET -3.470700 6.669187 -0.816635 
				CHANNELS 3 Yrotation Zrotation Xrotation
				JOINT rShldr
				{
					OFFSET -3.198488 0.000000 0.000000 
					CHANNELS 3 Zrotation Yrotation Xrotation
					JOINT rForeArm
					{
						OFFSET -10.139888 0.000000 0.000000 
						CHANNELS 3 Yrotation Zrotation Xrotation
						JOINT rHand
						{
							OFFSET -8.370511 0.000000 0.000000 
							CHANNELS 3 Zrotation Yrotation Xrotation
							End Site
							{
								OFFSET -4.083176 0.000000 0.000000 
							}
						}
					}
				}
			}
		}
	}
	JOINT lThigh
	{
		OFFSET 5.308129 -1.633274 1.361059 
		CHANNELS 3 Xrotation Zrotation Yrotation
		JOINT lShin
		{
			OFFSET -2.041588 -20.007561 0.000000 
			CHANNELS 3 Xrotation Zrotation Yrotation
			JOINT lFoot
			{
				OFFSET 0.000000 -19.190928 -1.224953 
				CHANNELS 3 Xrotation Yrotation Zrotation
				End Site
				{
					OFFSET 0.000000 -2.449906 4.627600 
				}
			}
		}
	}
	JOINT rThigh
	{
		OFFSET -5.308129 -1.633274 1.361059 
		CHANNELS 3 Xrotation Zrotation Yrotation
		JOINT rShin
		{
			OFFSET 2.041588 -20.007561 0.000000 
			CHANNELS 3 Xrotation Zrotation Yrotation
			JOINT rFoot
			{
				OFFSET 0.000000 -19.190928 -1.224953 
				CHANNELS 3 Xrotation Yrotation Zrotation
				End Site
				{
					OFFSET 0.000000 -2.449906 4.627600 
				}
			}
		}
	}
}
MOTION
Frames: 11
Frame Time: 0.016667
-86.679497 45.337349 99.562714 10.288900 -11.285300 33.218601 -18.286699 -1.333510 -4.729600 11.617900 4.071210 -2.758700 21.576700 12.546200 -9.998630 16.881300 6.696970 -4.134700 2.000000 -2.000000 0.000000 -71.983597 -16.648800 -153.850006 65.430199 -0.271697 0.124389 -179.910004 -179.878006 -1.062290 -2.000000 2.000000 0.000000 84.237701 -7.208610 -171.130005 -67.754402 0.266607 0.126547 -0.084462 0.087871 -166.052994 -38.546734 5.591637 -11.349819 63.820347 0.686622 4.176886 -41.515148 5.697687 1.267107 -43.478939 6.478830 3.098504 57.993935 -0.704879 -4.149805 -21.216526 16.907446 5.707308 
-87.828041 44.614048 100.576340 10.869200 -11.600600 33.001701 -18.130100 -1.145120 -4.420330 11.568500 4.109250 -2.592470 20.940399 12.805300 -10.394700 16.745300 6.758030 -4.294080 2.000000 -2.000000 0.000000 -71.164398 -17.304399 -154.492996 66.484901 -0.269398 0.125414 -179.910004 -179.878998 -1.013460 -2.000000 2.000000 0.000000 83.749001 -6.340620 -170.639999 -68.096199 0.265851 0.126853 -0.084303 0.087584 -165.934998 -40.834194 5.692402 -11.405996 66.557877 0.471556 4.293848 -42.108555 4.542371 0.188684 -46.126534 6.086096 2.351459 60.907589 -0.489120 -4.281291 -21.253027 17.785826 6.058771 
-88.988838 43.899902 101.638161 11.230100 -11.884200 32.648701 -17.886400 -0.867309 -4.066900 11.586000 4.292750 -2.405070 20.152300 13.029800 -10.764300 16.501499 6.831710 -4.435120 2.000000 -2.000000 0.000000 -70.198799 -17.823601 -155.244003 67.695801 -0.266737 0.126539 -179.910004 -179.878006 -1.150180 -2.000000 2.000000 0.000000 83.289597 -5.257510 -170.266006 -68.262299 0.265484 0.127000 -0.083946 0.086938 -165.671997 -42.944901 6.147492 -11.114837 69.588943 0.219671 4.390047 -42.808979 3.840589 -0.507623 -48.280579 5.957911 1.714719 63.635902 -0.275449 -4.423381 -22.034784 18.595778 6.611644 
-90.103348 43.148899 102.645721 11.743400 -12.418800 32.009602 -17.710800 -0.504661 -3.709580 11.624000 4.389680 -2.212170 19.405300 13.041200 -11.059200 16.275600 6.847590 -4.547680 2.000000 -2.000000 0.000000 -69.282204 -18.245701 -156.220001 68.897003 -0.264074 0.127598 -179.910004 -179.878006 -1.345490 -2.000000 2.000000 0.000000 82.566498 -3.920790 -169.764999 -68.311096 0.265375 0.127043 -0.082869 0.075174 -164.860992 -45.394154 6.815612 -10.640731 72.582626 -0.054207 4.505083 -43.596600 3.539217 -0.786916 -50.559612 5.982369 1.219260 65.920746 -0.086402 -4.490898 -22.592569 20.051394 7.433689 
-91.190331 42.377125 103.654297 12.360400 -12.955300 31.288300 -17.563900 -0.219612 -3.337100 11.683300 4.342140 -1.995100 18.505699 13.249500 -11.372400 15.992600 6.931860 -4.653270 2.000000 -2.000000 0.000000 -68.209198 -18.599400 -157.214996 70.108002 -0.261367 0.128610 -179.908997 -179.876999 -1.589630 -2.000000 2.000000 0.000000 81.960602 -2.457120 -169.264008 -68.242699 0.265527 0.126983 -0.082435 0.074352 -164.529007 -47.803814 7.459005 -10.133121 75.458694 -0.327015 4.600725 -44.617355 3.186285 -1.189107 -52.773438 5.967408 1.048906 68.012398 0.126109 -4.597908 -23.108501 21.837555 8.382851 
-92.293381 41.600586 104.704216 12.899600 -13.282000 30.786699 -17.336399 0.165846 -3.085590 11.786400 4.719810 -1.860050 17.663099 13.532200 -11.674400 15.770700 7.090990 -4.756250 2.000000 -2.000000 0.000000 -67.341400 -18.855900 -158.376999 71.221199 -0.258861 0.129489 -179.908997 -179.876999 -1.736120 -2.000000 2.000000 0.000000 80.847000 -0.808016 -168.712997 -68.086502 0.265873 0.126844 -0.082195 0.073891 -164.343994 -50.037449 7.939453 -9.708270 78.325027 -0.607283 4.672082 -45.675591 2.562929 -1.921521 -54.900021 5.817408 0.974418 70.424950 0.312563 -4.669436 -23.547337 23.533758 9.222787 
-93.294991 40.726349 105.587753 13.477400 -13.718600 30.133600 -17.264799 0.321035 -2.754330 11.478200 4.291470 -1.661150 16.900101 13.847100 -12.052800 15.596200 7.191510 -4.874500 2.000000 -2.000000 0.000000 -66.238899 -18.994801 -159.373001 72.402901 -0.256182 0.130369 -179.908005 -179.876999 -1.960720 -2.000000 2.000000 0.000000 80.182800 0.812593 -168.503998 -67.803299 0.266499 0.126591 -0.081807 0.073137 -164.041000 -52.695251 8.153180 -9.497804 81.516838 -0.915565 4.759302 -46.652229 2.450680 -2.220457 -57.565907 5.371379 0.720925 73.025574 0.535172 -4.763491 -23.184118 24.790716 9.499469 
-94.341972 39.882381 106.560715 13.818000 -14.023100 29.733700 -17.093800 0.558112 -2.537680 11.263500 4.231050 -1.531080 16.104900 14.121200 -12.363200 15.402600 7.311770 -4.973670 2.000000 -2.000000 0.000000 -65.155899 -19.143700 -160.447006 73.496597 -0.253687 0.131134 -179.908005 -179.876007 -2.185330 -2.000000 2.000000 0.000000 79.597000 2.511780 -168.490005 -67.393097 0.267404 0.126218 -0.081250 0.072040 -163.600998 -54.986927 8.422540 -9.481472 84.580772 -1.222528 4.788377 -47.236267 2.064139 -2.750234 -59.852020 4.988847 0.442606 75.686203 0.800493 -4.849222 -23.114809 25.610046 9.664845 
-95.346840 39.024773 107.522888 14.104500 -14.405700 29.214300 -16.902800 0.788754 -2.337880 11.099000 4.065270 -1.408710 15.258800 14.129600 -12.632400 15.127100 7.319260 -5.047550 2.000000 -2.000000 0.000000 -63.877602 -19.136499 -161.585999 74.668503 -0.250998 0.131900 -179.906998 -179.875000 -2.585720 -2.000000 2.000000 0.000000 79.079697 4.347630 -168.447006 -66.885300 0.268521 0.125747 -0.081029 0.071600 -163.425995 -57.304817 8.782157 -9.560521 87.629356 -1.549576 4.853300 -47.696529 1.601885 -3.363121 -62.165016 4.698131 0.238887 78.364975 1.018486 -4.905828 -22.766579 26.521627 9.690546 
-96.319023 38.168438 108.486977 14.353000 -14.799000 28.408300 -16.674900 1.140330 -2.009480 11.021400 4.006560 -1.209250 14.478000 14.164400 -12.909000 14.901700 7.363650 -5.128710 2.000000 -2.000000 0.000000 -62.706501 -19.090200 -162.679993 75.830597 -0.248316 0.132606 -179.906006 -179.875000 -2.917750 -2.000000 2.000000 0.000000 78.337898 6.222640 -168.451996 -66.377502 0.269633 0.125266 -0.081078 0.071698 -163.464996 -59.406349 9.373741 -9.437017 90.640976 -1.893872 4.897170 -48.417519 1.331313 -3.857243 -64.287041 4.649964 0.334838 80.664108 1.252487 -4.974656 -21.900019 27.728945 9.606443 
-97.268837 37.319996 109.459373 14.598400 -15.125100 27.488899 -16.426800 1.506980 -1.723680 11.011300 4.035330 -1.039000 13.822100 14.526900 -13.114200 14.798400 7.548780 -5.165420 2.000000 -2.000000 0.000000 -61.691799 -19.180901 -163.891006 76.611900 -0.246506 0.133050 -179.906006 -179.875000 -3.034940 -2.000000 2.000000 0.000000 77.459503 8.214510 -168.311005 -65.791496 0.270911 0.124699 -0.081225 0.071991 -163.582001 -61.485157 10.025310 -9.135420 93.655457 -2.244965 4.928587 -49.426075 1.323067 -4.120061 -66.409988 4.688915 0.584171 82.964119 1.486413 -5.041381 -20.991577 28.825686 9.423210 
